<svg xmlns:xlink="http://www.w3.org/1999/xlink" id="Layer_1" data-name="Layer 1" xmlns="http://www.w3.org/2000/svg" viewBox="0 0 872.27 693.12" width="872.27"  height="693.12" ><title>Bjäre Kraft Vertikal RGB</title><path d="M601,263.34c20.65-1.5,44.75,7.45,64.24,25.92,31.22,29.47,38.83,72.09,17,95.16-8.17,8.64-19.32,13.3-31.71,14.19-20.66,1.49-44.76-7.48-64.27-25.91-31.21-29.53-38.83-72.14-17-95.15,8.17-8.64,19.33-13.3,31.72-14.21" transform="translate(-165.5 -87.35)" fill="#FFCC00" fill-rule="evenodd"></path><path d="M481.45,278a4.32,4.32,0,0,0-8.19,1.53C461,427.78,560.73,519.61,626.87,525.3a69.65,69.65,0,0,0,13.17-.06c57.76-6,72.15-67.38,75.7-100.32a9.3,9.3,0,0,0-14.48-8.7C593.37,488.1,505.46,327.81,481.45,278Z" transform="translate(-165.5 -87.35)" fill="#E75113" fill-rule="evenodd"></path><path d="M469.66,87.38c35.13-.78,74.69,13.2,112.28,41.38A13.56,13.56,0,0,1,576.07,153c-51.73,8.65-147.88,43.88-129.94,186.9,7.47,59.57,30.63,109.13,65.54,152.75a4.07,4.07,0,0,1-5.29,6C468.26,475.54,384.9,411.25,364.85,283,344.46,152.52,397.76,89,469.66,87.38" transform="translate(-165.5 -87.35)" fill="#2AB9DA" fill-rule="evenodd"></path><path d="M615,169.64c96.62-5.29,197.33,57.61,222.27,149.17,27.54,100.94-54.71,152.64-95,171.42a8.85,8.85,0,0,1-11.86-11.46C783.14,349.66,701,266.91,655.65,244.55,595,214.47,540.06,215.75,512.3,219.3a5.48,5.48,0,0,1-4.15-9.69c31.79-25.37,69-37.91,106.86-40" transform="translate(-165.5 -87.35)" fill="#B1C806" fill-rule="evenodd"></path><path d="M260.61,703.24c0,24.8-17.68,40-54.47,40-17.27,0-30.28-1.22-40.64-3.25V611.38a209.71,209.71,0,0,1,39.83-3.66c34.35,0,49.39,13,49.39,36.18,0,14.83-6.51,23.57-16.47,28.45C251.87,677,260.61,686.78,260.61,703.24Zm-72.15-75.8V664h20.12c17.07,0,23.78-6.91,23.78-19.31,0-11.58-8.74-18.09-25.61-18.09C200.86,626.62,194.76,626.83,188.46,627.44Zm49,75.4c0-13-9.55-19.51-27-19.51H188.46V723a160.7,160.7,0,0,0,18.5,1C228.5,724,237.44,717.47,237.44,702.84Z" transform="translate(-165.5 -87.35)" fill="#4D4846"></path><path d="M239,772.34c.61-5.69,5.08-12.8,10.77-15.85,3.46,2.44,7.32,4.47,11.79,4.47,8.54,0,14.23-4.88,14.23-16.87V644.3a54.08,54.08,0,0,1,11.38-1,58,58,0,0,1,11.79,1v99.18c0,25-16.87,37-34.76,37C253,780.47,243.68,776.81,239,772.34ZM272.13,615a14.84,14.84,0,1,1,15,14.63A14.79,14.79,0,0,1,272.13,615Z" transform="translate(-165.5 -87.35)" fill="#4D4846"></path><path d="M400.08,681.09v52.64c-11.38,5.48-28.25,9.55-44.51,9.55-28.45,0-42.48-12-42.48-31.3,0-19.92,17.28-30.69,40.65-30.48q13.72,0,23.78,3.65v-5.48c0-11.59-7.72-18.5-23.17-18.5a46.58,46.58,0,0,0-26.83,8.54A19.4,19.4,0,0,1,317,654.87c5.69-5.49,20.32-13.61,39-13.61C381.38,641.26,400.08,652.64,400.08,681.09ZM357.6,725.6a67.1,67.1,0,0,0,19.92-3.05V701.82c-6.3-2.64-13.82-3.86-21.95-3.86-11.38,0-19.1,3.86-19.1,13C336.47,719.7,343.38,725.6,357.6,725.6Z" transform="translate(-165.5 -87.35)" fill="#4D4846"></path><path d="M477.63,644.3c0,7.32-2,14.64-6.1,19.92a57.67,57.67,0,0,0-14.63-1.83c-7.52,0-13.82,1.43-18.09,3.86v74a54.83,54.83,0,0,1-11.59,1,56,56,0,0,1-11.58-1V655.08c7.32-6.51,22.15-13.82,40.65-13.82C464.62,641.26,471.53,642.07,477.63,644.3Z" transform="translate(-165.5 -87.35)" fill="#4D4846"></path><path d="M570,698.36H502c1.83,15.86,11.58,25.61,27.64,25.61,14,0,22.15-5.49,28.45-10a23.82,23.82,0,0,1,10,15.65c-8.13,6.51-20.73,13.62-40,13.62-28.86,0-49.59-19.1-49.59-50.61,0-29.87,20.94-51.41,48.37-51.41,25.81,0,44.11,17.68,44.11,43.49A103.92,103.92,0,0,1,570,698.36Zm-21.74-15.24c0-11.38-5.9-23-21.55-23.17-14.22,0-23,10-24.59,23.17Z" transform="translate(-165.5 -87.35)" fill="#4D4846"></path><path d="M719.81,739a86.25,86.25,0,0,1-17.88,1.63c-3.26,0-8.95-.21-11.79-.41L645,685c-3.86,2.85-7.72,5.89-12,8.94v46.34a53.47,53.47,0,0,1-11.58,1.22,57.51,57.51,0,0,1-11.39-1.22V609.75a51.14,51.14,0,0,1,11.18-1.22A58.27,58.27,0,0,1,633,609.75v58.13c23.78-18.29,36.58-32.92,53.25-58.53a115.55,115.55,0,0,1,11.58-.61A91.86,91.86,0,0,1,713.1,610c-15.44,24.39-30.89,42.68-50.19,59.95Z" transform="translate(-165.5 -87.35)" fill="#4D4846"></path><path d="M790.11,644.3c0,7.32-2,14.64-6.1,19.92a57.73,57.73,0,0,0-14.63-1.83c-7.52,0-13.82,1.43-18.09,3.86v74a54.83,54.83,0,0,1-11.59,1,56,56,0,0,1-11.58-1V655.08c7.32-6.51,22.15-13.82,40.65-13.82C777.1,641.26,784,642.07,790.11,644.3Z" transform="translate(-165.5 -87.35)" fill="#4D4846"></path><path d="M879.28,681.09v52.64c-11.38,5.48-28.25,9.55-44.51,9.55-28.45,0-42.47-12-42.47-31.3,0-19.92,17.27-30.69,40.64-30.48q13.72,0,23.78,3.65v-5.48c0-11.59-7.72-18.5-23.17-18.5a46.52,46.52,0,0,0-26.82,8.54,19.44,19.44,0,0,1-10.57-14.84c5.69-5.49,20.32-13.61,39-13.61C860.58,641.26,879.28,652.64,879.28,681.09ZM836.81,725.6a67.08,67.08,0,0,0,19.91-3.05V701.82c-6.3-2.64-13.82-3.86-22-3.86-11.38,0-19.1,3.86-19.1,13C815.67,719.7,822.58,725.6,836.81,725.6Z" transform="translate(-165.5 -87.35)" fill="#4D4846"></path><path d="M960.61,612.8c-.82,6.1-4.88,12.81-10,15.86a24.46,24.46,0,0,0-14.84-4.88c-7.72,0-14,4.06-14,15.44v5.08h23a35.92,35.92,0,0,1,1.22,9.56,33.93,33.93,0,0,1-1.22,9.14h-23v77.23a52.23,52.23,0,0,1-11.18,1,57.2,57.2,0,0,1-11.58-1V662.8H886a42,42,0,0,1-1-9.15,50.81,50.81,0,0,1,1-9.55h13v-1.42c0-26,17.48-38.21,36.17-38.21C947.8,604.47,956.75,609.35,960.61,612.8Z" transform="translate(-165.5 -87.35)" fill="#4D4846"></path><path d="M1037.77,732.71a43.91,43.91,0,0,1-28.86,10.37c-20.73,0-36-9.35-36-32.52V663H956.48a47.79,47.79,0,0,1-.82-9.55,46.42,46.42,0,0,1,.82-9.15h16.46V619.71a56,56,0,0,1,11.58-1,51.08,51.08,0,0,1,11.18,1V644.3h36a34.82,34.82,0,0,1,1,9.15,36.91,36.91,0,0,1-1,9.55h-36v42.27c0,14.23,6.71,17.89,16.26,17.89a25,25,0,0,0,16-6.5A24.18,24.18,0,0,1,1037.77,732.71Z" transform="translate(-165.5 -87.35)" fill="#4D4846"></path><path d="M322.38,615a14.84,14.84,0,1,1,15,14.63A14.79,14.79,0,0,1,322.38,615Z" transform="translate(-165.5 -87.35)" fill="#4D4846"></path><path d="M363.82,615a14.84,14.84,0,1,1,15,14.63A14.79,14.79,0,0,1,363.82,615Z" transform="translate(-165.5 -87.35)" fill="#4D4846"></path></svg>